PathFileType	4	(X/Y/Z)	D:\TRACE\v60_Jaco2_6-2-23\JustArmDRS_Motion2_3-v60.trc
DataRate	CameraRate	NumFrames	NumMarkers	Units	OrigDataRate	OrigDataStartFrame	OrigNumFrames
100.00	100.00	      35	9	mm	100.00	1	      6969
Frame#	Time	front left toe			Front right toe			aft left toe			aft right toe			Arm			FL body			FR body			AL Body			AR Body			
		X1	Y1	Z1	X2	Y2	Z2	X3	Y3	Z3	X4	Y4	Z4	X5	Y5	Z5	X6	Y6	Z6	X7	Y7	Z7	X8	Y8	Z8	X9	Y9	Z9	

1	0.000	-201.29758	19.70777	-165.85335	206.55347	18.31894	-210.95567	-135.25951	17.01028	439.05777	268.15494	19.70225	426.92172	6.93162	1209.12659	-218.24146	-93.33412	580.51825	-312.08975	66.46387	580.47168	-330.15396	10.74295	582.24951	627.45978	166.65578	576.48828	611.72137	
2	0.010	-201.26689	19.70003	-165.85458	206.59471	18.33870	-210.91708	-135.26303	16.96442	439.08240	268.13214	19.69309	426.90906	6.91249	1209.15198	-218.23605	-93.27840	580.49738	-312.07172	66.45014	580.37042	-330.17831	10.72000	582.22931	627.44733	166.63988	576.47583	611.73700	
3	0.020	-201.24777	19.71042	-165.87431	206.50412	18.30799	-210.96669	-135.20554	16.93395	439.06662	268.19318	19.75185	426.93326	6.91179	1209.14600	-218.25096	-93.30192	580.51257	-312.04376	66.47823	580.46936	-330.16354	10.79507	582.23120	627.46069	166.64311	576.48102	611.72516	
4	0.030	-201.33243	19.73086	-165.85089	206.63911	18.32927	-210.92345	-135.22559	16.96872	439.08310	268.15112	19.71141	426.91498	6.96262	1209.14636	-218.24451	-93.31611	580.51709	-312.06973	66.53575	580.34631	-330.17075	10.70002	582.24713	627.44708	166.67694	576.47980	611.71985	
5	0.040	-201.26517	19.71107	-165.85689	206.54379	18.28468	-210.90787	-135.28375	17.02575	439.08936	268.14188	19.70473	426.91504	6.95618	1209.14612	-218.21654	-93.31310	580.54132	-312.05939	66.51814	580.49530	-330.14932	10.75365	582.23615	627.47131	166.64565	576.51672	611.69775	
6	0.050	-201.29657	19.70263	-165.86378	206.48775	18.27779	-210.96599	-135.27861	17.02084	439.05145	268.10013	19.67405	426.89172	6.92871	1209.16455	-218.22195	-93.27557	580.47900	-312.02448	66.55425	580.38293	-330.14886	10.74243	582.23950	627.43219	166.66350	576.50073	611.69812	
7	0.060	-201.30324	19.70575	-165.86212	206.51715	18.29843	-210.96089	-135.26874	16.96267	439.07547	268.08102	19.63453	426.90335	6.92342	1209.15906	-218.26006	-93.31355	580.51788	-312.08527	66.57703	580.35693	-330.15256	10.74218	582.24042	627.43671	166.64499	576.47839	611.67212	
8	0.070	-201.31100	19.71597	-165.85977	206.50273	18.25173	-210.96394	-135.27223	16.97675	439.07230	268.00851	19.60406	426.86481	6.95998	1209.13745	-218.23141	-93.32879	580.51624	-312.06747	66.50179	580.48468	-330.16711	10.74946	582.23663	627.46637	166.65469	576.48016	611.68225	
9	0.080	-201.25136	19.69261	-165.86148	206.63120	18.34674	-210.91707	-135.23166	16.94634	439.09274	268.16052	19.71439	426.92551	6.92472	1209.14111	-218.24706	-93.28917	580.50226	-312.03778	66.50002	580.45447	-330.16919	10.73162	582.23083	627.44580	166.63594	576.47156	611.70325	
10	0.090	-201.18321	19.67474	-165.88962	206.51540	18.31015	-210.93451	-135.24084	16.95558	439.07880	268.18317	19.71989	426.93176	6.96804	1209.13586	-218.23439	-93.30360	580.51166	-312.09061	66.48616	580.37073	-330.18433	10.77023	582.23291	627.44720	166.66164	576.47754	611.69910	
11	0.100	-201.21455	19.68431	-165.85439	206.49782	18.28893	-210.95319	-135.25731	16.97123	439.06671	268.21603	19.70830	426.95078	6.97389	1209.13025	-218.25679	-93.31590	580.51959	-312.04953	66.55810	580.35223	-330.13635	10.77604	582.21655	627.42511	166.70483	576.49652	611.72107	
12	0.110	-201.26613	19.70403	-165.88596	206.47653	18.25825	-210.95674	-135.25870	16.98809	439.08505	268.16745	19.71109	426.90277	6.98240	1209.15283	-218.24289	-93.30911	580.52936	-312.08664	66.62039	580.33508	-330.11649	10.75061	582.22095	627.42627	166.65382	576.48016	611.70660	
13	0.120	-201.31343	19.72924	-165.87360	206.59933	18.32720	-210.94423	-135.24887	16.96039	439.06702	268.17947	19.70466	426.92581	6.96096	1209.15015	-218.25371	-93.32571	580.51276	-312.08890	66.55920	580.35638	-330.15720	10.81279	582.21631	627.45959	166.65486	576.48016	611.71063	
14	0.130	-201.29163	19.71959	-165.88011	206.62482	18.36022	-210.92238	-135.30962	17.03576	439.07428	268.05316	19.62281	426.90991	6.91404	1209.16101	-218.21725	-93.29621	580.49957	-312.07925	66.61118	580.38733	-330.12967	10.74163	582.23932	627.49048	166.62392	576.47137	611.73145	
15	0.140	-201.26660	19.70698	-165.89104	206.58592	18.34765	-210.96669	-135.30923	17.05178	439.03949	268.19479	19.74199	426.93027	6.98533	1209.13147	-218.25323	-93.29662	580.53351	-312.07800	66.60477	580.33557	-330.16922	10.75954	582.24121	627.43903	166.45406	576.34375	611.63397	
16	0.150	-201.29620	19.70502	-165.85619	206.57225	18.33179	-210.95088	-135.29494	17.02211	439.04898	268.12439	19.74093	426.89474	6.95121	1209.14063	-218.27917	-93.29616	580.50348	-312.08517	66.52875	580.44769	-330.17828	10.77604	582.24341	627.45996	166.70370	576.49664	611.70013	
17	0.160	-201.23410	19.68993	-165.88344	206.54297	18.29968	-210.95177	-135.30075	17.03298	439.02545	268.11673	19.70221	426.91104	6.97226	1209.12964	-218.27119	-93.28702	580.49792	-312.08777	66.56514	580.36420	-330.14468	10.76028	582.26709	627.46118	166.66646	576.48248	611.70874	
18	0.170	-201.22876	19.70180	-165.86694	206.58037	18.34189	-210.91267	-135.27696	17.01280	439.06293	268.23734	19.75689	426.95090	6.98716	1209.11719	-218.26801	-93.30798	580.50433	-312.04156	66.56821	580.35669	-330.15067	10.73837	582.21509	627.45691	166.65019	576.50745	611.70459	
19	0.180	-201.23766	19.67908	-165.87250	206.53229	18.29708	-210.98024	-135.31372	17.04885	439.04526	268.14841	19.70740	426.93619	6.99841	1209.14893	-218.26985	-93.29871	580.50183	-312.11566	66.51948	580.47473	-330.15442	10.74267	582.22290	627.46344	166.62602	576.49451	611.71088	
20	0.190	-201.29573	19.71190	-165.86208	206.47189	18.25320	-210.97755	-135.27864	16.99919	439.04977	268.15323	19.69471	426.92053	6.92512	1209.15845	-218.25533	-93.28518	580.50330	-312.09790	66.54486	580.37097	-330.16415	10.67259	582.22900	627.47998	166.64464	576.50281	611.71600	
21	0.200	-201.31862	19.75293	-165.84416	206.55193	18.31536	-210.94356	-135.27788	16.97727	439.04413	268.16898	19.71643	426.94659	6.97126	1209.16443	-218.28789	-93.33198	580.51404	-312.09448	66.59705	580.34167	-330.19064	10.74174	582.26373	627.43677	166.65277	576.48486	611.71350	
22	0.210	-201.33058	19.76090	-165.87718	206.57544	18.29010	-210.94496	-135.31702	17.04198	439.04202	268.13596	19.70156	426.87662	6.98963	1209.14087	-218.25536	-93.28775	580.51300	-312.08395	66.53454	580.37573	-330.16504	10.73026	582.27112	627.44873	166.63435	576.50592	611.70392	
23	0.220	-201.25816	19.73508	-165.87669	206.61954	18.31561	-210.94200	-135.32349	17.05379	439.01776	268.10843	19.66467	426.91232	6.97068	1209.13147	-218.26965	-93.29194	580.49597	-312.05975	66.59108	580.36047	-330.22650	10.74994	582.23737	627.42059	166.64389	576.50073	611.71246	
24	0.230	-201.21994	19.68972	-165.86565	206.52280	18.28378	-210.93326	-135.26094	16.96238	439.07053	268.17334	19.71679	426.92950	6.99426	1209.13806	-218.25693	-93.29474	580.47412	-312.09491	66.58417	580.36621	-330.11032	10.71559	582.23901	627.42999	166.65520	576.48895	611.67639	
25	0.240	-201.27380	19.68732	-165.86790	206.59705	18.30631	-210.91685	-135.25565	16.98436	439.07745	268.11035	19.64808	426.89902	6.97289	1209.13220	-218.25964	-93.28265	580.51471	-312.11685	66.55460	580.45050	-330.16992	10.78988	582.20251	627.42200	166.68677	576.48639	611.71143	
26	0.250	-201.17799	19.63935	-165.87064	206.54301	18.30890	-210.95383	-135.24358	17.00230	439.05402	268.24991	19.73911	426.94794	7.01560	1209.12793	-218.25012	-93.28288	580.51630	-312.08649	66.57646	580.45892	-330.15741	10.78503	582.23773	627.44916	166.66476	576.47821	611.69550	
27	0.260	-201.18613	19.65942	-165.86845	206.56354	18.30467	-210.93207	-135.28436	16.99916	439.06290	268.24652	19.72746	426.95569	7.03669	1209.13660	-218.27475	-93.24616	580.50989	-312.05588	66.58145	580.33020	-330.19412	10.80745	582.25031	627.43835	166.70992	576.49188	611.68109	
28	0.270	-201.23955	19.68993	-165.85191	206.65706	18.33732	-210.87996	-135.27097	16.97150	439.05511	268.16660	19.73075	426.93643	7.01228	1209.12317	-218.25363	-93.30043	580.49933	-312.10892	66.51967	580.45239	-330.17633	10.79497	582.24249	627.43213	166.68146	576.49817	611.68994	
29	0.280	-201.26794	19.73008	-165.85814	206.59801	18.29995	-210.96342	-135.28696	16.97661	439.04370	268.13882	19.67834	426.89560	7.03138	1209.14136	-218.28165	-93.26510	580.48895	-312.07376	66.61601	580.34241	-330.17459	10.73165	582.24078	627.43427	166.68875	576.52527	611.69873	
30	0.290	-201.18541	19.69912	-165.85759	206.58667	18.35745	-210.90047	-135.26387	16.99082	439.06995	268.15479	19.69009	426.93845	6.98380	1209.15344	-218.28423	-93.21932	580.48615	-312.09033	66.57881	580.36133	-330.18188	10.73733	582.25012	627.45892	166.66478	576.50134	611.69000	
31	0.300	-201.30080	19.72273	-165.87321	206.57915	18.35451	-210.89449	-135.26530	17.01897	439.03586	268.13950	19.68165	426.94693	7.00081	1209.13782	-218.26117	-93.27016	580.48236	-312.08829	66.57368	580.34381	-330.17197	10.78071	582.25964	627.41895	166.63033	576.49146	611.68915	
32	0.310	-201.09521	19.59469	-165.90907	206.60460	18.33377	-210.93474	-135.21159	16.96164	439.07523	268.21811	19.70479	426.90637	7.04567	1209.11353	-218.24478	-93.32616	580.50098	-312.12561	66.62176	580.37250	-330.17285	10.81004	582.22571	627.46387	166.67233	576.49738	611.69086	
33	0.320	-201.24628	19.71212	-165.87198	206.61113	18.30943	-210.94756	-135.26190	17.00041	439.06512	268.16837	19.71220	426.94122	7.00832	1209.11780	-218.27890	-93.28015	580.54584	-312.04468	66.60934	580.34924	-330.16501	10.77203	582.24072	627.41656	166.65726	576.49854	611.68994	
34	0.330	-201.25731	19.68063	-165.88271	206.59552	18.33303	-210.95798	-135.21199	16.92981	439.06656	268.13556	19.71716	426.93488	7.00038	1209.15869	-218.26498	-93.23435	580.48694	-312.07114	66.57193	580.43829	-330.16248	10.80097	582.25458	627.42755	166.67795	576.51447	611.69073	
35	0.340	-201.22427	19.69918	-165.88313	206.56508	18.29128	-210.95607	-135.25380	17.00289	439.07883	268.16165	19.70565	426.93921	7.02106	1209.13660	-218.25623	-93.28778	580.48334	-312.06662	66.64526	580.35736	-330.15057	10.78173	582.25409	627.41956	166.63730	576.51068	611.69763	
